<svg xmlns="http://www.w3.org/2000/svg" viewBox="0 0 48 48"><defs><style>.a{fill:#d61b5d;}.b{isolation:isolate;}.c{fill:#fff;}</style></defs><path class="a" d="M24,0A24,24,0,1,1,0,24,24,24,0,0,1,24,0Z"/><g class="b"><g class="b"><path class="c" d="M34.23,20.92V24.2a.66.66,0,0,1-.66.66H13.89a.65.65,0,0,1-.66-.66V20.92a1.31,1.31,0,0,1,1.31-1.31h1.81A3.53,3.53,0,0,1,15.94,18a3.61,3.61,0,0,1,3.61-3.61c1.7,0,2.81.87,4.22,2.8,1.42-1.93,2.52-2.8,4.23-2.8A3.61,3.61,0,0,1,31.6,18a3.65,3.65,0,0,1-.41,1.64h1.73A1.31,1.31,0,0,1,34.23,20.92ZM14.54,26.17h7.88v6.56H15.85a1.31,1.31,0,0,1-1.31-1.31Zm8.53-6.56c-2.11-3.15-2.71-3.28-3.53-3.28a1.64,1.64,0,0,0,0,3.28ZM29.64,18A1.64,1.64,0,0,0,28,16.33c-.84,0-1.43.14-3.54,3.28H28A1.64,1.64,0,0,0,29.64,18ZM25,26.17h7.88v5.25a1.31,1.31,0,0,1-1.32,1.31H25Z"/></g></g></svg>